<svg width="25" height="28" viewBox="0 0 25 28" fill="none" xmlns="http://www.w3.org/2000/svg">
<g clip-path="url(#clip0_44_371)">
<path d="M11.4609 25.3477C17.6484 25.3477 21.7734 21.1641 21.7734 14.8594C21.7734 4.37109 12.8438 0 6.64453 0C5.54297 0 4.83984 0.386719 4.83984 1.13672C4.83984 1.42969 4.96875 1.73438 5.21484 2.01562C6.60938 3.67969 8.00391 5.66016 8.02734 7.96875C8.02734 8.49609 7.96875 8.96484 7.59375 9.62109L8.17969 9.50391C7.65234 7.78125 6.23438 6.5625 4.99219 6.5625C4.51172 6.5625 4.18359 6.91406 4.18359 7.44141C4.18359 7.74609 4.26562 8.46094 4.26562 8.97656C4.26562 11.6016 2.25 13.1367 2.25 17.3672C2.25 22.1602 5.91797 25.3477 11.4609 25.3477ZM11.7305 22.0547C9.53906 22.0547 8.08594 20.7305 8.08594 18.7617C8.08594 16.6992 9.55078 15.9609 9.73828 14.6367C9.76172 14.5312 9.83203 14.4961 9.91406 14.5664C10.4531 15.0469 10.8047 15.6328 11.0977 16.3125C11.7188 15.4688 12.0117 13.6875 11.8125 11.7656C11.8008 11.6602 11.8711 11.6016 11.9766 11.6367C14.543 12.8438 15.8789 15.3984 15.8789 17.6836C15.8789 20.0039 14.5195 22.0547 11.7305 22.0547Z" fill="#231D27"/>
</g>
<defs>
<clipPath id="clip0_44_371">
<rect width="19.5234" height="27.4805" fill="white" transform="translate(2.25)"/>
</clipPath>
</defs>
</svg>
